<svg width="1000" height="1001" viewBox="0 0 1000 1001" fill="none" xmlns="http://www.w3.org/2000/svg">
<rect width="999.996" height="999.996" transform="translate(0 0.140381)" fill="#0065FF"/>
<g clip-path="url(#clip0_8706_10817)">
<path d="M499.974 833.474C484.227 833.474 469.172 829.788 457.582 823.093L241.501 698.34C217.721 684.607 199.094 652.346 199.094 624.887V375.39C199.094 347.939 217.721 315.67 241.501 301.936L457.582 177.184C469.172 170.488 484.242 166.802 499.989 166.802C515.744 166.802 530.807 170.488 542.404 177.184L758.485 301.936C782.265 315.67 800.893 347.931 800.893 375.39V624.887C800.893 652.346 782.25 684.607 758.485 698.34L542.404 823.085C530.792 829.781 515.736 833.474 499.974 833.474ZM499.989 204.794C490.938 204.794 482.403 206.725 476.582 210.084L260.501 334.837C248.258 341.912 237.093 361.239 237.093 375.382V624.88C237.093 639.023 248.258 658.349 260.501 665.425L476.582 790.178C488.217 796.911 511.746 796.896 523.405 790.17L739.485 665.425C751.729 658.349 762.893 639.023 762.893 624.88V375.382C762.893 361.239 751.729 341.912 739.485 334.837L523.405 210.084C517.576 206.725 509.048 204.794 499.989 204.794Z" fill="white"/>
<path d="M500.273 833.476C489.778 833.476 481.273 824.971 481.273 814.476V664.461C481.273 637.003 499.901 604.741 523.688 591.008L653.617 515.997C662.698 510.738 674.326 513.861 679.563 522.951C684.814 532.04 681.698 543.661 672.616 548.905L542.688 623.916C530.445 630.991 519.281 650.318 519.281 664.461V814.476C519.281 824.971 510.776 833.476 500.273 833.476Z" fill="white"/>
<path d="M609.228 444.615C594.059 444.615 578.904 441.126 566.821 434.15L436.893 359.138C427.811 353.895 424.695 342.274 429.946 333.185C435.183 324.11 446.81 320.979 455.892 326.231L585.82 401.242C598.064 408.317 620.377 408.317 632.636 401.242L762.549 326.231C771.631 320.979 783.258 324.095 788.51 333.185C793.746 342.274 790.63 353.895 781.548 359.138L651.636 434.15C639.537 441.126 624.382 444.615 609.228 444.615Z" fill="white"/>
<path d="M390.404 644.293C379.909 644.293 371.405 635.788 371.405 625.293V475.278C371.405 461.135 360.24 441.808 347.997 434.733L218.084 359.721C208.987 354.478 205.886 342.857 211.123 333.768C216.359 324.686 227.987 321.555 237.084 326.814L366.997 401.825C390.777 415.558 409.404 447.82 409.404 475.278V625.293C409.404 635.781 400.9 644.293 390.404 644.293Z" fill="white"/>
<path d="M450.582 451.292C450.582 431.692 464.475 423.666 481.46 433.47L566.07 482.315C583.049 492.119 583.049 508.155 566.07 517.958L481.46 566.811C464.482 576.615 450.582 568.589 450.582 548.989V451.292Z" fill="white"/>
</g>
<defs>
<clipPath id="clip0_8706_10817">
<rect width="666.672" height="666.672" fill="white" transform="translate(166.664 166.802)"/>
</clipPath>
</defs>
</svg>
